<svg width="100" height="130" viewBox="0 0 100 130" xmlns="http://www.w3.org/2000/svg">
  <text x="0" y="34" font-size="10" font-family="Arial">3ª</text>
  
  <rect x="10" y="20" width="80" height="80" fill="none" stroke="black" stroke-width="3"/>
  
  <line x1="26" y1="20" x2="26" y2="100" stroke="black" stroke-width="2"/>
  <line x1="42" y1="20" x2="42" y2="100" stroke="black" stroke-width="2"/>
  <line x1="58" y1="20" x2="58" y2="100" stroke="black" stroke-width="2"/>
  <line x1="74" y1="20" x2="74" y2="100" stroke="black" stroke-width="2"/>
  
  <line x1="10" y1="40" x2="90" y2="40" stroke="black" stroke-width="2"/>
  <line x1="10" y1="60" x2="90" y2="60" stroke="black" stroke-width="2"/>
  <line x1="10" y1="80" x2="90" y2="80" stroke="black" stroke-width="2"/>
  
  <rect x="8" y="24" width="84" height="12" rx="6" fill="black"/>
  <text x="46" y="34" fill="white" font-size="10" font-family="Arial">1</text>
  
  <circle cx="58" cy="50" r="7" fill="black"/>
  <text x="54" y="54" fill="white" font-size="10" font-family="Arial">2</text>
  
  <circle cx="26" cy="70" r="7" fill="black"/>
  <text x="22" y="74" fill="white" font-size="10" font-family="Arial">3</text>
  
  <circle cx="42" cy="70" r="7" fill="black"/>
  <text x="38" y="74" fill="white" font-size="10" font-family="Arial">4</text>
  
  <text x="45" y="120" font-size="14" font-weight="bold" font-family="Arial">G</text>
</svg>
